<svg xmlns="http://www.w3.org/2000/svg" data-name="Layer 1" viewBox="0 0 64 80" x="0px" y="0px"><path d="M39,5a3,3,0,1,0,3-3A3,3,0,0,0,39,5Zm4,0a1,1,0,1,1-1-1A1,1,0,0,1,43,5Z"/><path d="M33,7a5,5,0,1,0,5,5A5.006,5.006,0,0,0,33,7Zm0,8a3,3,0,1,1,3-3A3,3,0,0,1,33,15Z"/><path d="M19,17a4,4,0,1,0-4-4A4,4,0,0,0,19,17Zm0-6a2,2,0,1,1-2,2A2,2,0,0,1,19,11Z"/><path d="M13,2a3,3,0,1,0,3,3A3,3,0,0,0,13,2Zm0,4a1,1,0,1,1,1-1A1,1,0,0,1,13,6Z"/><rect x="40.455" y="33.265" width="1.999" height="20.081" transform="translate(-11.739 15.66) rotate(-18.789)"/><rect x="35.337" y="35.006" width="1.999" height="20.081" transform="translate(-12.573 14.104) rotate(-18.789)"/><rect x="45.574" y="31.524" width="1.999" height="20.081" transform="translate(-10.904 17.213) rotate(-18.787)"/><path d="M7.261,51.245l2.819.493-.09.514a2.544,2.544,0,0,0,.144,4.984l21.3,3.725a2.511,2.511,0,0,0,.438.039,2.546,2.546,0,0,0,2.306-1.492,2.433,2.433,0,0,0,1.341-.074l20.473-6.965a2.545,2.545,0,0,0-.627-4.947l-.168-.493,2.709-.922a5.641,5.641,0,0,0,3.519-7.149L56.7,25.065a5.633,5.633,0,0,0-7.148-3.519l-2.71.922-.175-.516a7.176,7.176,0,0,0-12.5-2.047,5.55,5.55,0,0,0-4.607,1.9,4.9,4.9,0,0,0-.66-.166,5.648,5.648,0,0,0-2.228.06,7.177,7.177,0,0,0-12.033,3.949l-.094.537-2.82-.493a5.633,5.633,0,0,0-6.52,4.579L2.681,44.725A5.641,5.641,0,0,0,7.261,51.245Zm16.776-22.9a5.552,5.552,0,0,0,.234,1.112l-8.018-1.4.187-1.07Zm2.48,1.524,1.031-.35.351,1.031-1.032.351ZM10.957,46.725l-2.06-.36a1.316,1.316,0,0,1-1.069-1.524L10.09,31.907a1.321,1.321,0,0,1,1.524-1.07l2.058.36ZM31.779,58.992l-21.3-3.726a.545.545,0,1,1,.188-1.073,1,1,0,0,0,1.157-.813l4.086-23.361L25,31.609,31.969,52.1l-.815,4.659a1,1,0,0,0,.167.747,1,1,0,0,0,.647.41.545.545,0,0,1-.189,1.074Zm23.91-9.108a.544.544,0,0,1-.339.691L34.877,57.541a.545.545,0,0,1-.353-1.032,1,1,0,0,0,.625-1.269L27.512,32.789l1.192-.405a3.305,3.305,0,0,0,5.113.271,3.337,3.337,0,0,0,.964.714,3.317,3.317,0,0,0,4.605-4.044l-.176-.515,6.882-2.342L53.73,48.919A1,1,0,0,0,55,49.544.545.545,0,0,1,55.689,49.884Zm-17.473-24L45.1,23.543l.351,1.032-6.881,2.341Zm10.267,1.4,1.978-.673a1.316,1.316,0,0,1,1.671.824l4.229,12.429a1.318,1.318,0,0,1-.823,1.671l-1.978.673ZM50.2,23.44a3.635,3.635,0,0,1,4.612,2.27L59.534,39.6a3.638,3.638,0,0,1-2.27,4.61l-2.709.922L54.2,44.1l1.979-.673a3.321,3.321,0,0,0,2.071-4.209l-4.23-12.43a3.323,3.323,0,0,0-4.208-2.072l-1.978.673-.35-1.031Zm-19.528.2a3.62,3.62,0,0,1,3.786-1.682,1,1,0,0,0,1.036-.451A5.117,5.117,0,0,1,38.2,19.362a5.183,5.183,0,0,1,6.153,2.32l-7.732,2.631A1,1,0,0,0,36,25.582l1.492,4.387A1.317,1.317,0,0,1,35,30.817l-.5-1.462h0A1,1,0,1,0,32.608,30v0a1.317,1.317,0,0,1-2.494.846l-1-2.925a1,1,0,0,0-1.268-.624l-1.829.622a3.627,3.627,0,0,1,2.442-3.613,3.573,3.573,0,0,1,1.311-.187A.99.99,0,0,0,30.669,23.639Zm-8.063-1.857a5.119,5.119,0,0,1,3.011,1.7,1,1,0,0,0,.176.15,5.671,5.671,0,0,0-1.607,2.7l-7.3-1.307A5.183,5.183,0,0,1,22.606,21.782ZM4.651,45.069,7.18,30.614a3.631,3.631,0,0,1,4.206-2.953l2.818.492-.187,1.074-2.058-.36a3.317,3.317,0,0,0-3.84,2.7L5.857,44.5a3.319,3.319,0,0,0,2.7,3.839l2.058.36-.187,1.074L7.6,49.275A3.64,3.64,0,0,1,4.651,45.069Z"/><rect x="13.045" y="44.941" width="20.081" height="2.001" transform="translate(-26.146 60.766) rotate(-80.078)"/><rect x="21.691" y="49.882" width="11.922" height="1.999" transform="translate(-27.05 69.888) rotate(-80.639)"/><rect x="7.72" y="44.009" width="20.08" height="2.001" transform="translate(-29.636 54.751) rotate(-80.081)"/></svg>