<svg xmlns="http://www.w3.org/2000/svg" data-name="Layer 1" viewBox="0 0 64 80" x="0px" y="0px"><title>Artboard 1 copy 13</title><path d="M56.98576,22.55938a.98222.98222,0,0,0-.058-.251.96353.96353,0,0,0-.20349-.34131c-.008-.00848-.01355-.0188-.02191-.027a.96407.96407,0,0,0-.08729-.1076.98764.98764,0,0,0-.20782-.09711L32.4608,9.29143a1.00025,1.00025,0,0,0-1.17481.1875l-6.14648,6.26758a.99932.99932,0,0,0,.20215,1.55957,1.74477,1.74477,0,0,1,.97949,1.4209c0,1.02637-1.25781,1.89258-2.74707,1.89258a3.4603,3.4603,0,0,1-1.72852-.44434,1.00132,1.00132,0,0,0-1.21289.166L7.42351,33.81042a.98713.98713,0,0,0-.39624.64819.99876.99876,0,0,0-.01783.10529c-.00116.01947-.00958.03692-.00958.05664v5.32031a1.00033,1.00033,0,0,0,.98926,1,2.07724,2.07724,0,0,1,0,4.1543,1.00032,1.00032,0,0,0-.98926,1v7.72558a1.0005,1.0005,0,0,0,1,1,.97374.97374,0,0,0,.24219-.03027l33.89844-8.47461a1.00017,1.00017,0,0,0,.72851-1.21192,2.58527,2.58527,0,0,1-.08887-.63476,2.64819,2.64819,0,0,1,5.21778-.64649.99925.99925,0,0,0,1.21191.72559l7.03223-1.75781a.99961.99961,0,0,0,.75781-.96973V22.62054C56.99986,22.599,56.9871,22.58062,56.98576,22.55938Zm-35.4234-.30994a5.57994,5.57994,0,0,0,2.01172.37012c2.61719,0,4.74707-1.74609,4.74707-3.89258a3.41906,3.41906,0,0,0-.98145-2.36816l4.85547-4.95117L53.15776,22.30077,11.2332,32.78191ZM49.5897,42.392a4.64824,4.64824,0,0,0-8.80957,2.07715c0,.042.001.083.002.125L8.99986,52.53948V46.96136a4.07525,4.07525,0,0,0,0-7.88672V35.43108l46-11.5v17.1084Z"/><path d="M22.4774,33.62151A4.59912,4.59912,0,1,0,27.076,38.22112,4.60411,4.60411,0,0,0,22.4774,33.62151Zm0,7.19824A2.59912,2.59912,0,1,1,25.076,38.22112,2.60192,2.60192,0,0,1,22.4774,40.81975Z"/><path d="M43.54283,28.48772a3.58155,3.58155,0,1,0,3.581,3.582A3.58551,3.58551,0,0,0,43.54283,28.48772Zm0,5.16309a1.58155,1.58155,0,1,1,1.581-1.58106A1.58333,1.58333,0,0,1,43.54283,33.65081Z"/><path d="M34.28209,37.90081a3.19824,3.19824,0,1,0,3.19922,3.19824A3.20167,3.20167,0,0,0,34.28209,37.90081Zm0,4.39648a1.19824,1.19824,0,1,1,1.19922-1.19824A1.19906,1.19906,0,0,1,34.28209,42.29729Z"/><path d="M50.56016,35.083a1.65946,1.65946,0,1,0,1.65949,1.65942A1.65942,1.65942,0,0,0,50.56016,35.083Z"/><circle cx="32.86009" cy="33.42351" r="1.65948"/><path d="M16,44.15716a1.65946,1.65946,0,1,0,1.65949,1.65942A1.65942,1.65942,0,0,0,16,44.15716Z"/><path d="M28.35722,26.71844a2.07238,2.07238,0,0,0,2.28113-1.76117A2.07237,2.07237,0,0,0,28.35722,23.196a2.07237,2.07237,0,0,0-2.28113,1.76123A2.07238,2.07238,0,0,0,28.35722,26.71844Z"/><path d="M36.15416,23.87444c2.66894,0,4.84082-1.77832,4.84082-3.96484s-2.17188-3.96582-4.84082-3.96582-4.84082,1.77929-4.84082,3.96582S33.48521,23.87444,36.15416,23.87444Zm0-5.93066c1.54,0,2.84082.90039,2.84082,1.96582s-1.30078,1.96484-2.84082,1.96484-2.84082-.89941-2.84082-1.96484S34.61412,17.94378,36.15416,17.94378Z"/></svg>