<svg xmlns="http://www.w3.org/2000/svg" viewBox="0 0 35 43.75" x="0px" y="0px"><title>Artboard 18</title><g data-name="18"><path d="M33,19.34l-1-3a.5.5,0,0,0-.3-.31l-2.73-1a2.49,2.49,0,0,0-4.65-1.69l-3.41-1.24C21,10.26,21,8.63,21,7.5,21,4.31,19.53,2,17.5,2S14,4.31,14,7.5c0,1.13,0,2.76.12,4.61l-3.41,1.24A2.49,2.49,0,0,0,6.06,15L3.33,16a.5.5,0,0,0-.3.31l-1,3A.5.5,0,0,0,2.5,20h0l11.91-1c.24,4.59.51,8.77.55,9.43a5.82,5.82,0,0,0-3.49,4,.5.5,0,0,0,.76.52c.84-.53,3.28-1.92,4.45-1.92H17v1.5a.5.5,0,0,0,1,0V31h.29c1.17,0,3.61,1.39,4.45,1.92a.51.51,0,0,0,.55,0,.5.5,0,0,0,.21-.51,5.82,5.82,0,0,0-3.49-4c0-.66.3-4.84.55-9.43l11.91,1h0a.5.5,0,0,0,.47-.66ZM26.5,13A1.45,1.45,0,0,1,28,14.69l-2.74-1A1.5,1.5,0,0,1,26.5,13Zm-9-10C18.92,3,20,4.93,20,7.5c0,4.67-.8,17.84-1,20.5H18v-.5a.5.5,0,0,0-1,0V28H16c-.17-2.66-1-15.83-1-20.5C15,4.93,16.07,3,17.5,3ZM7,14.5a1.5,1.5,0,0,1,2.76-.81L7,14.69A1.51,1.51,0,0,1,7,14.5ZM3.21,18.94l.68-2.05,10.27-3.73c.07,1.55.15,3.21.23,4.85ZM16.71,30A9.55,9.55,0,0,0,13,31.33,4.77,4.77,0,0,1,17,29v1ZM22,31.33A9.55,9.55,0,0,0,18.29,30H18V29A4.77,4.77,0,0,1,22,31.33ZM20.6,18c.09-1.64.17-3.3.23-4.85L31.1,16.89l.68,2.05Z"/><path d="M26.5,20a.5.5,0,0,0-.5.5v1a.5.5,0,0,0,1,0v-1A.5.5,0,0,0,26.5,20Z"/><path d="M26.5,23a.5.5,0,0,0-.5.5v6a.5.5,0,0,0,1,0v-6A.5.5,0,0,0,26.5,23Z"/><path d="M24.5,20a.5.5,0,0,0-.5.5v3a.5.5,0,0,0,1,0v-3A.5.5,0,0,0,24.5,20Z"/><path d="M28.5,20a.5.5,0,0,0-.5.5v5a.5.5,0,0,0,1,0v-5A.5.5,0,0,0,28.5,20Z"/><path d="M8.5,20a.5.5,0,0,0-.5.5v1a.5.5,0,0,0,1,0v-1A.5.5,0,0,0,8.5,20Z"/><path d="M10.5,20a.5.5,0,0,0-.5.5v3a.5.5,0,0,0,1,0v-3A.5.5,0,0,0,10.5,20Z"/><path d="M6.5,20a.5.5,0,0,0-.5.5v5a.5.5,0,0,0,1,0v-5A.5.5,0,0,0,6.5,20Z"/><path d="M16.49,6h0a.5.5,0,0,0,.5-.49.5.5,0,1,1,1,0,.5.5,0,0,0,1,0,1.5,1.5,0,0,0-3,0A.5.5,0,0,0,16.49,6Z"/></g></svg>